# xmcd CD database file
#
# Track frame offsets:
#	150
#	7705
#	20475
#	34451
#	43002
#	60803
#	73227
#	89895
#	104050
#	122520
#	138819
#	155438
#	198182
#	211112
#
# Disc length: 2970 seconds
#
# Revision: 2
# Processed by: cddbd v1.5.1PL0 Copyright (c) Steve Scherf et al.
# Submitted via: CDex 1.51
#
DISCID=ba0b980e
DTITLE=Bardou - Qui fait souffler le vent
DYEAR=2002
DGENRE=Celtic
TTITLE0=Troubadour's Odyssey - 1
TTITLE1=Troubadour's Odyssey - 2
TTITLE2=Troubadour's Odyssey - 3
TTITLE3=Troubadour's Odyssey - 4
TTITLE4=Blind Mary
TTITLE5=Slack Tide
TTITLE6=Whale's Spout Jig
TTITLE7=Amazing Grace
TTITLE8=Qui fait souffler le vent
TTITLE9=She Moved Thru the Fair
TTITLE10=Wild Mountain Thyme
TTITLE11=Greensleeves Suite
TTITLE12=Aezenn Vor
TTITLE13=Scarbourough Fair
EXTD=YEAR: 2002
EXTT0=
EXTT1=
EXTT2=
EXTT3=
EXTT4=
EXTT5=
EXTT6=
EXTT7=
EXTT8=
EXTT9=
EXTT10=
EXTT11=
EXTT12=
EXTT13=
PLAYORDER=
